<svg width="259" height="60" viewBox="0 0 259 60" fill="none" xmlns="http://www.w3.org/2000/svg">
<path d="M83.08 8.465C86.6967 8.465 89.4733 9.10667 91.41 10.39C93.3467 11.65 94.315 13.7267 94.315 16.62C94.315 19.5367 93.335 21.6483 91.375 22.955C89.415 24.2383 86.615 24.88 82.975 24.88H81.26V33H75.8V9.095C76.99 8.86167 78.25 8.69833 79.58 8.605C80.91 8.51167 82.0767 8.465 83.08 8.465ZM83.43 13.12C83.0333 13.12 82.6367 13.1317 82.24 13.155C81.8667 13.1783 81.54 13.2017 81.26 13.225V20.225H82.975C84.865 20.225 86.2883 19.9683 87.245 19.455C88.2017 18.9417 88.68 17.985 88.68 16.585C88.68 15.9083 88.5517 15.3483 88.295 14.905C88.0617 14.4617 87.7117 14.1117 87.245 13.855C86.8017 13.575 86.2533 13.3883 85.6 13.295C84.9467 13.1783 84.2233 13.12 83.43 13.12ZM99.0244 33V6.68L104.239 5.84V14.66C104.589 14.5433 105.033 14.4383 105.569 14.345C106.129 14.2283 106.666 14.17 107.179 14.17C108.673 14.17 109.909 14.38 110.889 14.8C111.893 15.1967 112.686 15.7683 113.269 16.515C113.876 17.2617 114.296 18.1483 114.529 19.175C114.786 20.2017 114.914 21.345 114.914 22.605V33H109.699V23.235C109.699 21.555 109.478 20.365 109.034 19.665C108.614 18.965 107.821 18.615 106.654 18.615C106.188 18.615 105.744 18.6617 105.324 18.755C104.928 18.825 104.566 18.9067 104.239 19V33H99.0244ZM127.72 29.36C128.233 29.36 128.723 29.3483 129.19 29.325C129.656 29.3017 130.03 29.2667 130.31 29.22V25.265C130.1 25.2183 129.785 25.1717 129.365 25.125C128.945 25.0783 128.56 25.055 128.21 25.055C127.72 25.055 127.253 25.09 126.81 25.16C126.39 25.2067 126.016 25.3117 125.69 25.475C125.363 25.6383 125.106 25.86 124.92 26.14C124.733 26.42 124.64 26.77 124.64 27.19C124.64 28.0067 124.908 28.5783 125.445 28.905C126.005 29.2083 126.763 29.36 127.72 29.36ZM127.3 14.1C128.84 14.1 130.123 14.275 131.15 14.625C132.176 14.975 132.993 15.4767 133.6 16.13C134.23 16.7833 134.673 17.5767 134.93 18.51C135.186 19.4433 135.315 20.4817 135.315 21.625V32.475C134.568 32.6383 133.53 32.825 132.2 33.035C130.87 33.2683 129.26 33.385 127.37 33.385C126.18 33.385 125.095 33.28 124.115 33.07C123.158 32.86 122.33 32.5217 121.63 32.055C120.93 31.565 120.393 30.935 120.02 30.165C119.646 29.395 119.46 28.45 119.46 27.33C119.46 26.2567 119.67 25.3467 120.09 24.6C120.533 23.8533 121.116 23.2583 121.84 22.815C122.563 22.3717 123.391 22.0567 124.325 21.87C125.258 21.66 126.226 21.555 127.23 21.555C127.906 21.555 128.501 21.59 129.015 21.66C129.551 21.7067 129.983 21.7767 130.31 21.87V21.38C130.31 20.4933 130.041 19.7817 129.505 19.245C128.968 18.7083 128.035 18.44 126.705 18.44C125.818 18.44 124.943 18.51 124.08 18.65C123.216 18.7667 122.47 18.9417 121.84 19.175L121.175 14.975C121.478 14.8817 121.851 14.7883 122.295 14.695C122.761 14.5783 123.263 14.485 123.8 14.415C124.336 14.3217 124.896 14.2517 125.48 14.205C126.086 14.135 126.693 14.1 127.3 14.1ZM152.175 19.21C151.709 19.0933 151.16 18.9767 150.53 18.86C149.9 18.72 149.224 18.65 148.5 18.65C148.174 18.65 147.777 18.685 147.31 18.755C146.867 18.8017 146.529 18.86 146.295 18.93V33H141.08V15.57C142.014 15.2433 143.11 14.94 144.37 14.66C145.654 14.3567 147.077 14.205 148.64 14.205C148.92 14.205 149.259 14.2283 149.655 14.275C150.052 14.2983 150.449 14.345 150.845 14.415C151.242 14.4617 151.639 14.5317 152.035 14.625C152.432 14.695 152.77 14.7883 153.05 14.905L152.175 19.21ZM167.011 23.235C167.011 21.555 166.789 20.365 166.346 19.665C165.926 18.965 165.191 18.615 164.141 18.615C163.814 18.615 163.476 18.6383 163.126 18.685C162.776 18.7083 162.438 18.7433 162.111 18.79V33H156.896V15.22C157.339 15.1033 157.853 14.9867 158.436 14.87C159.043 14.73 159.673 14.6133 160.326 14.52C161.003 14.4033 161.691 14.3217 162.391 14.275C163.091 14.205 163.779 14.17 164.456 14.17C165.786 14.17 166.859 14.345 167.676 14.695C168.516 15.0217 169.204 15.4183 169.741 15.885C170.488 15.3483 171.339 14.9283 172.296 14.625C173.276 14.3217 174.174 14.17 174.991 14.17C176.461 14.17 177.663 14.38 178.596 14.8C179.553 15.1967 180.311 15.7683 180.871 16.515C181.431 17.2617 181.816 18.1483 182.026 19.175C182.236 20.2017 182.341 21.345 182.341 22.605V33H177.126V23.235C177.126 21.555 176.904 20.365 176.461 19.665C176.041 18.965 175.306 18.615 174.256 18.615C173.976 18.615 173.579 18.685 173.066 18.825C172.576 18.965 172.168 19.14 171.841 19.35C172.004 19.8867 172.109 20.4583 172.156 21.065C172.203 21.6483 172.226 22.2783 172.226 22.955V33H167.011V23.235ZM195.162 29.36C195.675 29.36 196.165 29.3483 196.632 29.325C197.098 29.3017 197.472 29.2667 197.752 29.22V25.265C197.542 25.2183 197.227 25.1717 196.807 25.125C196.387 25.0783 196.002 25.055 195.652 25.055C195.162 25.055 194.695 25.09 194.252 25.16C193.832 25.2067 193.458 25.3117 193.132 25.475C192.805 25.6383 192.548 25.86 192.362 26.14C192.175 26.42 192.082 26.77 192.082 27.19C192.082 28.0067 192.35 28.5783 192.887 28.905C193.447 29.2083 194.205 29.36 195.162 29.36ZM194.742 14.1C196.282 14.1 197.565 14.275 198.592 14.625C199.618 14.975 200.435 15.4767 201.042 16.13C201.672 16.7833 202.115 17.5767 202.372 18.51C202.628 19.4433 202.757 20.4817 202.757 21.625V32.475C202.01 32.6383 200.972 32.825 199.642 33.035C198.312 33.2683 196.702 33.385 194.812 33.385C193.622 33.385 192.537 33.28 191.557 33.07C190.6 32.86 189.772 32.5217 189.072 32.055C188.372 31.565 187.835 30.935 187.462 30.165C187.088 29.395 186.902 28.45 186.902 27.33C186.902 26.2567 187.112 25.3467 187.532 24.6C187.975 23.8533 188.558 23.2583 189.282 22.815C190.005 22.3717 190.833 22.0567 191.767 21.87C192.7 21.66 193.668 21.555 194.672 21.555C195.348 21.555 195.943 21.59 196.457 21.66C196.993 21.7067 197.425 21.7767 197.752 21.87V21.38C197.752 20.4933 197.483 19.7817 196.947 19.245C196.41 18.7083 195.477 18.44 194.147 18.44C193.26 18.44 192.385 18.51 191.522 18.65C190.658 18.7667 189.912 18.9417 189.282 19.175L188.617 14.975C188.92 14.8817 189.293 14.7883 189.737 14.695C190.203 14.5783 190.705 14.485 191.242 14.415C191.778 14.3217 192.338 14.2517 192.922 14.205C193.528 14.135 194.135 14.1 194.742 14.1Z" fill="#00683D"/>
<path d="M212.07 50.43C212.73 50.43 213.27 50.38 213.69 50.28C214.13 50.16 214.48 50.01 214.74 49.83C215 49.63 215.18 49.4 215.28 49.14C215.38 48.88 215.43 48.59 215.43 48.27C215.43 47.59 215.11 47.03 214.47 46.59C213.83 46.13 212.73 45.64 211.17 45.12C210.49 44.88 209.81 44.61 209.13 44.31C208.45 43.99 207.84 43.6 207.3 43.14C206.76 42.66 206.32 42.09 205.98 41.43C205.64 40.75 205.47 39.93 205.47 38.97C205.47 38.01 205.65 37.15 206.01 36.39C206.37 35.61 206.88 34.95 207.54 34.41C208.2 33.87 209 33.46 209.94 33.18C210.88 32.88 211.94 32.73 213.12 32.73C214.52 32.73 215.73 32.88 216.75 33.18C217.77 33.48 218.61 33.81 219.27 34.17L217.92 37.86C217.34 37.56 216.69 37.3 215.97 37.08C215.27 36.84 214.42 36.72 213.42 36.72C212.3 36.72 211.49 36.88 210.99 37.2C210.51 37.5 210.27 37.97 210.27 38.61C210.27 38.99 210.36 39.31 210.54 39.57C210.72 39.83 210.97 40.07 211.29 40.29C211.63 40.49 212.01 40.68 212.43 40.86C212.87 41.02 213.35 41.19 213.87 41.37C214.95 41.77 215.89 42.17 216.69 42.57C217.49 42.95 218.15 43.4 218.67 43.92C219.21 44.44 219.61 45.05 219.87 45.75C220.13 46.45 220.26 47.3 220.26 48.3C220.26 50.24 219.58 51.75 218.22 52.83C216.86 53.89 214.81 54.42 212.07 54.42C211.15 54.42 210.32 54.36 209.58 54.24C208.84 54.14 208.18 54.01 207.6 53.85C207.04 53.69 206.55 53.52 206.13 53.34C205.73 53.16 205.39 52.99 205.11 52.83L206.43 49.11C207.05 49.45 207.81 49.76 208.71 50.04C209.63 50.3 210.75 50.43 212.07 50.43ZM228.931 54H224.461V38.22H228.931V54ZM229.351 33.66C229.351 34.48 229.081 35.13 228.541 35.61C228.021 36.07 227.401 36.3 226.681 36.3C225.961 36.3 225.331 36.07 224.791 35.61C224.271 35.13 224.011 34.48 224.011 33.66C224.011 32.84 224.271 32.2 224.791 31.74C225.331 31.26 225.961 31.02 226.681 31.02C227.401 31.02 228.021 31.26 228.541 31.74C229.081 32.2 229.351 32.84 229.351 33.66ZM240.873 30.72C241.713 30.72 242.483 30.81 243.183 30.99C243.883 31.15 244.423 31.31 244.803 31.47L243.933 35.04C243.533 34.86 243.093 34.73 242.613 34.65C242.153 34.55 241.723 34.5 241.323 34.5C240.783 34.5 240.323 34.58 239.943 34.74C239.583 34.88 239.293 35.08 239.073 35.34C238.873 35.6 238.723 35.91 238.623 36.27C238.543 36.63 238.503 37.02 238.503 37.44V38.22H244.023V41.94H238.503V54H234.033V37.38C234.033 35.34 234.603 33.72 235.743 32.52C236.903 31.32 238.613 30.72 240.873 30.72ZM247.439 34.29L251.909 33.57V38.22H257.279V41.94H251.909V47.49C251.909 48.43 252.069 49.18 252.389 49.74C252.729 50.3 253.399 50.58 254.399 50.58C254.879 50.58 255.369 50.54 255.869 50.46C256.389 50.36 256.859 50.23 257.279 50.07L257.909 53.55C257.369 53.77 256.769 53.96 256.109 54.12C255.449 54.28 254.639 54.36 253.679 54.36C252.459 54.36 251.449 54.2 250.649 53.88C249.849 53.54 249.209 53.08 248.729 52.5C248.249 51.9 247.909 51.18 247.709 50.34C247.529 49.5 247.439 48.57 247.439 47.55V34.29Z" fill="#00683D"/>
<mask id="path-3-inside-1_34_23" fill="white">
<path fill-rule="evenodd" clip-rule="evenodd" d="M42.75 2H19V19.2307H0V40.7692H19V58H42.75V40.7692H61.75V19.2307H42.75V2Z"/>
</mask>
<path fill-rule="evenodd" clip-rule="evenodd" d="M42.75 2H19V19.2307H0V40.7692H19V58H42.75V40.7692H61.75V19.2307H42.75V2Z" fill="#00683D"/>
<path d="M19 2V1H18V2H19ZM42.75 2H43.75V1H42.75V2ZM19 19.2307V20.2307H20V19.2307H19ZM0 19.2307V18.2307H-1V19.2307H0ZM0 40.7692H-1V41.7692H0V40.7692ZM19 40.7692H20V39.7692H19V40.7692ZM19 58H18V59H19V58ZM42.75 58V59H43.75V58H42.75ZM42.75 40.7692V39.7692H41.75V40.7692H42.75ZM61.75 40.7692V41.7692H62.75V40.7692H61.75ZM61.75 19.2307H62.75V18.2307H61.75V19.2307ZM42.75 19.2307H41.75V20.2307H42.75V19.2307ZM19 3H42.75V1H19V3ZM20 19.2307V2H18V19.2307H20ZM0 20.2307H19V18.2307H0V20.2307ZM1 40.7692V19.2307H-1V40.7692H1ZM19 39.7692H0V41.7692H19V39.7692ZM20 58V40.7692H18V58H20ZM42.75 57H19V59H42.75V57ZM41.75 40.7692V58H43.75V40.7692H41.75ZM61.75 39.7692H42.75V41.7692H61.75V39.7692ZM60.75 19.2307V40.7692H62.75V19.2307H60.75ZM42.75 20.2307H61.75V18.2307H42.75V20.2307ZM41.75 2V19.2307H43.75V2H41.75Z" fill="white" mask="url(#path-3-inside-1_34_23)"/>
</svg>
